<svg width="47" height="44" viewBox="0 0 47 44" fill="none" xmlns="http://www.w3.org/2000/svg">
<path d="M46.8784 0L39.6953 9.40068L46.8784 18.8022V0Z" fill="white"/>
<path d="M46.8784 24.6756V43.4778L46.8172 43.4011L46.7059 43.2519L46.5913 43.1062L46.48 42.9605L46.3688 42.8113L46.2576 42.6656L46.1429 42.5199L46.0317 42.3707L45.9205 42.225L45.8058 42.0793L45.6946 41.9301L45.5842 41.7844L45.473 41.6387L45.3574 41.4896L45.1359 41.1981L45.0246 41.0524L44.9091 40.9033L44.7987 40.7575L44.6875 40.6118L44.5763 40.4627L44.4616 40.317L44.3504 40.1712L44.2392 40.0221L44.1245 39.8764L44.0133 39.7315L43.902 39.5815L43.7908 39.4358L43.6761 39.2909L43.5649 39.1409L43.4537 38.9952L43.3425 38.8495L43.2278 38.7003L43.0053 38.4089L42.8941 38.2597L42.7794 38.114L42.6682 37.9692L42.557 37.8191L42.4466 37.6734L42.3311 37.5286L42.2199 37.3785L42.1086 37.2328L41.994 37.088L41.8827 36.938L41.6612 36.6474L41.5456 36.4974L41.324 36.2068L41.2128 36.0611L41.0973 35.9119L40.9869 35.7662L40.8757 35.6205L40.7645 35.4713L40.6498 35.3256L40.5386 35.1799L40.4273 35.0307L40.3127 34.885L40.2014 34.7393L40.0902 34.5902L39.979 34.4444L39.8643 34.2987L39.7531 34.1496L39.6953 34.0763L39.7531 34.0038L39.8643 33.8581L39.9755 33.709L40.0902 33.5633L40.2014 33.4175L40.3127 33.2684L40.4273 33.1227L40.5386 32.977L40.6498 32.8278L40.7601 32.6821L40.8757 32.5364L40.9869 32.3872L41.0973 32.2415L41.2085 32.0958L41.324 31.9466L41.5456 31.6552L41.6568 31.506L41.7715 31.3603L41.8827 31.2146L41.994 31.0689L42.1086 30.9197L42.2199 30.774L42.3311 30.6283L42.4423 30.4791L42.557 30.3334L42.6682 30.1877L42.7794 30.0385L42.8907 29.8928L43.0053 29.7471L43.1166 29.598L43.2278 29.4522L43.339 29.3065L43.4537 29.1574L43.5649 29.0117L43.6761 28.8668L43.7874 28.7168L43.902 28.5711L44.0133 28.4262L44.1245 28.2762L44.2392 28.1305L44.3504 27.9856L44.4616 27.8356L44.572 27.6899L44.6875 27.545L44.7987 27.395L45.0203 27.1044L46.8784 24.6756Z" fill="white"/>
<path d="M46.8955 21.8208L42.8577 27.1044L42.7465 27.2493L42.6353 27.395L42.5241 27.545L42.4094 27.6899L42.2982 27.8356L42.1869 27.9856L42.0757 28.1305L41.961 28.2762L41.8498 28.4262L41.7386 28.5711L41.6239 28.7168L41.5127 28.8668L41.4023 29.0117L41.2911 29.1574L41.1756 29.3065L41.0643 29.4522L40.954 29.598L40.8428 29.7471L40.7281 29.8928L40.6169 30.0385L40.5056 30.1877L40.3944 30.3334L40.2797 30.4791L40.1685 30.6283L40.0573 30.774L39.9426 30.9197L39.8314 31.0689L39.7202 31.2146H39.7124V12.4158L46.8955 21.8208Z" fill="white"/>
<path d="M26.9331 34.0771L27.0254 34.2073L27.1323 34.3565L27.2357 34.5022L27.3427 34.6479L27.4461 34.797L27.5496 34.9428L27.6574 35.0885L27.7608 35.2376L27.8677 35.3833L27.9712 35.5291L28.0781 35.6782L28.1816 35.8239L28.2851 35.9696L28.3928 36.1145L28.4963 36.2645L28.6032 36.4102L28.7067 36.5551L28.8101 36.7051L28.9179 36.8508L29.0214 36.9957L29.1283 37.1457L29.2318 37.2914L29.3352 37.4363L29.4421 37.5863L29.5456 37.732L29.6534 37.8769L29.7568 38.0269L29.8638 38.1726L29.9672 38.3174L30.0707 38.4675L30.1776 38.6123L30.2811 38.758L30.3888 38.9081L30.5958 39.1986L30.7027 39.3486L30.8062 39.4935L30.9131 39.6392L31.0165 39.7892L31.12 39.9341L31.2278 40.0798L31.3312 40.2298L31.4382 40.3747L31.5416 40.5204L31.6503 40.6704L31.7537 40.8161L31.8563 40.9618L31.9141 41.042L31.9719 40.9618L32.0753 40.8161L32.1822 40.6704L32.2857 40.5213L32.3935 40.3755L32.4961 40.2307L32.5996 40.0807L32.7073 39.935L32.8108 39.7901L32.9177 39.6401L33.0212 39.4944L33.1289 39.3495L33.2324 39.1995L33.3359 39.0538L33.4428 38.9089L33.5463 38.7589L33.6532 38.6132L33.7566 38.4683L33.8601 38.3183L33.9679 38.1735L34.0713 38.0277L34.1783 37.8777L34.3852 37.5872L34.4955 37.4371L34.599 37.2923L34.7068 37.1466L34.8103 36.9965L34.9172 36.8517L35.0129 36.7043L35.1163 36.5542L35.2241 36.4094L35.3267 36.2637L35.4345 36.1136L35.538 35.9688L35.6414 35.8231L35.7483 35.6774L35.8518 35.5282L35.9596 35.3825L36.063 35.2368L36.1665 35.0876L36.2734 34.9419L36.3769 34.7962L36.4838 34.647L36.5873 34.5013L36.695 34.3556L36.7985 34.2064L36.8942 34.0762L26.9331 34.0771Z" fill="white"/>
<path d="M37.8681 12.3986V32.1871H25.9541V12.3986L31.9111 20.0558L37.8681 12.3986Z" fill="white"/>
<path d="M0 0.003479L7.18307 9.40502L0 18.8066V0.003479Z" fill="white"/>
<path d="M0 24.679V43.4812L0.0612169 43.4054L0.172442 43.2553L0.287116 43.1096L0.398341 42.9648L0.509566 42.8147L0.620791 42.669L0.735465 42.5242L0.84669 42.3742L0.957915 42.2284L1.07259 42.0836L1.18381 41.9336L1.29504 41.7879L1.40626 41.643L1.52094 41.493L1.74339 41.2024L1.85461 41.0567L1.96929 40.9075L2.08051 40.7618L2.19174 40.6161L2.30296 40.4669L2.41764 40.3212L2.52886 40.1755L2.63922 40.0264L2.75476 39.8806L2.86599 39.7349L2.97721 39.5858L3.08757 39.4401L3.20311 39.2943L3.31433 39.1452L3.4247 38.9995L3.53592 38.8537L3.65146 38.7046L3.87305 38.4132L3.98427 38.264L4.09895 38.1183L4.21017 37.9726L4.3214 37.8234L4.43262 37.6777L4.5473 37.532L4.65852 37.3828L4.76975 37.2371L4.88442 37.0914L4.99564 36.9422L5.21809 36.6508L5.33277 36.5016L5.55522 36.2102L5.66644 36.0645L5.78112 35.9153L5.89234 35.7696L6.00357 35.6239L6.11393 35.4747L6.22947 35.329L6.34069 35.1833L6.45192 35.0342L6.56659 34.8884L6.67782 34.7427L6.78904 34.5936L6.8994 34.4479L7.01494 34.3021L7.12617 34.153L7.18307 34.0806L7.12617 34.0073L7.01494 33.8616L6.90372 33.7124L6.78904 33.5667L6.67782 33.4218L6.56659 33.2718L6.45192 33.1261L6.34069 32.9804L6.22947 32.8312L6.11824 32.6855L6.00357 32.5398L5.89234 32.3906L5.78112 32.2449L5.66989 32.1001L5.55522 31.95L5.33277 31.6595L5.22154 31.5094L5.10687 31.3637L4.99564 31.2189L4.88442 31.0732L4.76975 30.9231L4.65852 30.7783L4.5473 30.6326L4.43607 30.4834L4.3214 30.3377L4.21017 30.192L4.09895 30.0428L3.98858 29.8971L3.87305 29.7514L3.76182 29.6022L3.65146 29.4565L3.54023 29.3108L3.4247 29.1616L3.31433 29.0159L3.20311 28.8702L3.09188 28.7211L2.97721 28.5753L2.86599 28.4296L2.75476 28.2805L2.63922 28.1348L2.52886 27.989L2.41764 27.8399L2.30641 27.6942L2.19174 27.5485L2.08051 27.3993L1.85806 27.1079L0 24.679Z" fill="white"/>
<path d="M0.03125 21.8251L4.06898 27.1079L4.1802 27.2536L4.29143 27.3993L4.40179 27.5484L4.51733 27.6942L4.62769 27.8399L4.73892 27.989L4.85014 28.1347L4.96482 28.2805L5.07604 28.4296L5.18727 28.5753L5.3028 28.721L5.41316 28.8702L5.52439 29.0159L5.63561 29.1616L5.75029 29.3108L5.86151 29.4565L5.97274 29.6022L6.08396 29.7514L6.19864 29.8971L6.30986 30.0428L6.42109 30.192L6.53231 30.3377L6.64699 30.4834L6.75821 30.6326L6.86944 30.7783L6.98411 30.9231L7.09534 31.0732L7.20656 31.2189H7.21432V12.4201L0.03125 21.8251Z" fill="white"/>
<path d="M16.8511 0.00518799L24.0341 9.40673L16.8511 18.8083V0.00518799Z" fill="white"/>
<path d="M16.8511 24.6808V43.4839L16.9123 43.4071L17.0235 43.2571L17.1382 43.1123L17.2494 42.9665L17.3606 42.8165L17.471 42.6717L17.5865 42.5259L17.6978 42.3759L17.8081 42.2311L17.9237 42.0854L18.0349 41.9362L18.1453 41.7905L18.2565 41.6448L18.372 41.4956L18.5936 41.2042L18.7048 41.0585L18.8195 40.9093L18.9307 40.7636L19.0419 40.6179L19.1532 40.4687L19.2678 40.323L19.3791 40.1773L19.4903 40.0281L19.605 39.8824L19.7162 39.7367L19.8274 39.5875L19.9386 39.4418L20.0533 39.2961L20.1645 39.1469L20.2758 39.0012L20.387 38.8555L20.5017 38.7064L20.7241 38.4149L20.8353 38.2658L20.95 38.1201L21.0612 37.9743L21.1725 37.8252L21.2828 37.6795L21.3984 37.5338L21.5096 37.3846L21.62 37.2389L21.7355 37.0932L21.8467 36.944L22.0683 36.6526L22.1838 36.5034L22.4054 36.212L22.5167 36.0671L22.6313 35.9171L22.7426 35.7714L22.8538 35.6265L22.965 35.4765L23.0797 35.3308L23.1909 35.186L23.3021 35.0359L23.4168 34.8902L23.528 34.7454L23.6393 34.5953L23.7505 34.4505L23.8652 34.3048L23.9764 34.1548L24.0341 34.0823L23.9764 34.0099L23.8652 33.8642L23.7539 33.7142L23.6393 33.5693L23.528 33.4236L23.4168 33.2736L23.3021 33.1287L23.1909 32.983L23.0797 32.833L22.9685 32.6881L22.8538 32.5424L22.7426 32.3933L22.6313 32.2475L22.521 32.1018L22.4054 31.9518L22.1838 31.6612L22.0726 31.5121L21.9571 31.3664L21.8467 31.2207L21.7355 31.0749L21.62 30.9258L21.5096 30.7801L21.3984 30.6343L21.2871 30.4852L21.1725 30.3395L21.0612 30.1938L20.95 30.0446L20.8388 29.8989L20.7241 29.7532L20.6129 29.604L20.5017 29.4583L20.3904 29.3126L20.2758 29.1634L20.1645 29.0177L20.0533 28.872L19.9421 28.7228L19.8274 28.5771L19.7162 28.4314L19.605 28.2822L19.4903 28.1365L19.3791 27.9908L19.2678 27.8416L19.1566 27.6959L19.0419 27.5502L18.9307 27.4011L18.7091 27.1096L16.8511 24.6808Z" fill="white"/>
<path d="M16.8813 21.8269L20.9191 27.1096L21.0303 27.2553L21.1415 27.401L21.2528 27.5502L21.3674 27.6959L21.4787 27.8416L21.5899 27.9908L21.7011 28.1365L21.8158 28.2822L21.927 28.4314L22.0382 28.5771L22.1529 28.7228L22.2641 28.872L22.3754 29.0177L22.4857 29.1634L22.6012 29.3126L22.7125 29.4583L22.8237 29.604L22.9341 29.7532L23.0496 29.8989L23.1608 30.0446L23.2712 30.1937L23.3824 30.3395L23.4979 30.4852L23.6083 30.6343L23.7195 30.78L23.8351 30.9258L23.9454 31.0749L24.0567 31.2206H24.0644V12.4219L16.8813 21.8269Z" fill="white"/>
</svg>
