<?xml version="1.0" encoding="UTF-8"?>
<svg version="1.1" xmlns="http://www.w3.org/2000/svg" width="335" height="142">
<path d="M0 0 C0.98742187 0.4228125 1.97484375 0.845625 2.9921875 1.28125 C17.02987987 8.12114543 30.59139045 22.31587782 36 37 C36.375 40.5625 36.375 40.5625 36 43 C35 44 35 44 31.9375 44.0625 C30.968125 44.041875 29.99875 44.02125 29 44 C28.5875 43.17757812 28.175 42.35515625 27.75 41.5078125 C18.6118097 23.84336428 7.10515286 12.61561251 -11.96875 5.96484375 C-28.01222709 1.32862389 -44.14528252 3.74464316 -58.60742188 11.67822266 C-73.67932053 20.4282535 -82.90792928 34.02383129 -87.8125 50.5625 C-91.87794597 68.45046227 -88.53035063 86.45338555 -79 102 C-76.23938864 105.61415728 -73.2598587 108.83411921 -70 112 C-69.45988281 112.56074219 -68.91976562 113.12148437 -68.36328125 113.69921875 C-57.90386321 123.73709853 -42.73316244 127.96771728 -28.625 128.4375 C-12.35770969 128.03583851 2.85052403 121.90833537 14.6484375 110.6484375 C25.36122779 98.58320193 29.61782022 85.78350562 33 70 C21.78 70 10.56 70 -1 70 C-1.495 66.535 -1.495 66.535 -2 63 C-1 62 -1 62 2.96899414 61.88647461 C4.74105607 61.8866338 6.5131226 61.89233215 8.28515625 61.90234375 C9.21597519 61.9037587 10.14679413 61.90517365 11.1058197 61.90663147 C14.09141191 61.91224828 17.07693029 61.9248036 20.0625 61.9375 C22.08137913 61.94251284 24.10025943 61.94707612 26.11914062 61.95117188 C31.07945572 61.96222317 36.03971532 61.97949905 41 62 C41.04091532 64.50928377 41.07045391 67.01788323 41.09375 69.52734375 C41.11260254 70.57698303 41.11260254 70.57698303 41.13183594 71.64782715 C41.24718002 88.29101674 33.57058509 104.05095238 22.2043457 115.92114258 C14.00332922 124.14185614 5.87104894 129.80071395 -5 134 C-5.87527344 134.34160156 -6.75054687 134.68320313 -7.65234375 135.03515625 C-25.09993073 140.54357211 -45.8761715 138.0939849 -61.91894531 129.89575195 C-79.14130817 120.59615574 -90.58216007 105.13570667 -96.30859375 86.62109375 C-101.29051529 67.73482621 -98.79271832 46.82774521 -89.625 29.70703125 C-79.37387705 12.63004038 -64.30012049 1.69755051 -45.38671875 -4.109375 C-30.58474602 -7.6343213 -13.85855864 -6.04503254 0 0 Z " fill="#7FD2BA" transform="translate(98,5)"/>
<path d="M0 0 C6.34423358 5.50089135 13.21543771 12.03468803 16.3984375 19.9921875 C16.0234375 23.7421875 16.0234375 23.7421875 15.3984375 26.9921875 C12.7734375 27.6171875 12.7734375 27.6171875 9.3984375 26.9921875 C7.63876866 24.69214792 6.33774728 22.26681624 4.94921875 19.7265625 C-0.64886097 9.85589296 -9.51406802 3.7107385 -20.328125 0.5234375 C-34.19640927 -2.71726123 -45.66119558 0.76628279 -57.6015625 7.9921875 C-60.33989584 10.0848209 -62.50015974 12.26748731 -64.6015625 14.9921875 C-65.05789062 15.57355469 -65.51421875 16.15492187 -65.984375 16.75390625 C-73.05082426 26.84581133 -74.86676049 38.9469862 -73.6015625 50.9921875 C-71.28461961 61.99115797 -65.49052608 71.98929085 -56.6015625 78.9921875 C-45.48905321 85.6526263 -34.49605835 88.31326639 -21.6875 85.84375 C-10.517003 82.76125842 -1.23261524 76.67527472 4.7734375 66.7421875 C5.65239432 65.16104729 6.52791209 63.57798539 7.3984375 61.9921875 C8.3884375 60.5071875 8.3884375 60.5071875 9.3984375 58.9921875 C12.4609375 58.7421875 12.4609375 58.7421875 15.3984375 58.9921875 C16.3984375 59.9921875 16.3984375 59.9921875 16.64453125 62.72265625 C16.01382974 71.10197625 8.63786735 78.43367088 2.78515625 83.98828125 C-9.46453572 94.27321085 -22.99082316 96.83264605 -38.6015625 95.9921875 C-52.77187894 93.98967572 -64.7692688 86.59145371 -73.640625 75.42578125 C-83.14885275 61.52758452 -84.82835248 45.43969329 -81.90625 29.10546875 C-78.18794848 15.90393603 -70.07697233 3.85026549 -58.09375 -3.1875 C-39.62966089 -13.18106631 -17.05091892 -13.1594179 0 0 Z " fill="#009597" transform="translate(100.6015625,28.0078125)"/>
<path d="M0 0 C-0.9080162 1.13199353 -1.82683826 2.25532363 -2.75 3.375 C-3.51570313 4.31472656 -3.51570313 4.31472656 -4.296875 5.2734375 C-6.08199481 7.08312318 -7.67949644 8.00117455 -10 9 C-11.3921875 8.0409375 -11.3921875 8.0409375 -12.8125 7.0625 C-18.15900155 3.602999 -22.79251326 3.46737633 -29 4 C-33.71634572 5.65945498 -36.39822391 7.72565357 -39 12 C-41.19099397 17.90664869 -41.5975647 23.17998475 -39 29 C-36.43936331 33.18422879 -33.69186839 35.5179979 -29 37 C-26.20620722 37.27646386 -26.20620722 37.27646386 -23.375 37.1875 C-21.96347656 37.17783203 -21.96347656 37.17783203 -20.5234375 37.16796875 C-17.87399088 37.09828658 -17.87399088 37.09828658 -15 36 C-14.67 30.39 -14.34 24.78 -14 19 C-9.71 19 -5.42 19 -1 19 C-0.86521291 22.91781142 -0.76596963 26.83100266 -0.6875 30.75 C-0.64560547 31.86117187 -0.60371094 32.97234375 -0.56054688 34.1171875 C-0.43671293 42.33976162 -0.43671293 42.33976162 -3.26953125 45.66015625 C-4.17058594 46.10230469 -5.07164062 46.54445312 -6 47 C-6.66 47.33386719 -7.32 47.66773438 -8 48.01171875 C-18.39207494 51.52310345 -29.46626329 52.5027282 -39.5625 47.80859375 C-47.17092712 43.6533962 -52.21612656 38.2783605 -55 30 C-56.66743342 19.49785889 -55.96910023 11.35905333 -50.546875 2.109375 C-45.68710761 -4.51758054 -38.16140822 -8.16771836 -30.25 -9.75 C-18.3742948 -10.82960956 -8.76296146 -8.0888875 0 0 Z " fill="#012F43" transform="translate(219,73)"/>
<path d="M0 0 C1.9375 2 1.9375 2 1.9375 6 C0.546875 7.73828125 0.546875 7.73828125 -1.3125 9.3125 C-1.91578125 9.84488281 -2.5190625 10.37726563 -3.140625 10.92578125 C-5.0625 12 -5.0625 12 -7.16796875 11.76171875 C-9.45354174 10.84277703 -11.12043497 9.50353422 -13.0625 8 C-18.64490452 6.13919849 -24.11381969 6.06174652 -29.4375 8.625 C-34.0435238 12.79235487 -36.83156072 16.99778937 -37.3125 23.25 C-37.02122524 27.61912134 -35.94616665 30.08197336 -34.0625 34 C-33.7325 34.99 -33.4025 35.98 -33.0625 37 C-30.63866923 38.16953416 -30.63866923 38.16953416 -28.0625 39 C-27.4025 39.33 -26.7425 39.66 -26.0625 40 C-19.1500216 40.68898886 -14.63588187 40.48589273 -9.0625 36 C-7.13671875 35.1875 -7.13671875 35.1875 -5.0625 35 C-3.140625 36.21484375 -3.140625 36.21484375 -1.3125 37.9375 C-0.69890625 38.50339844 -0.0853125 39.06929687 0.546875 39.65234375 C1.23523438 40.31943359 1.23523438 40.31943359 1.9375 41 C1.875 43.1875 1.875 43.1875 0.9375 46 C-5.19476893 51.59902815 -12.90720073 54.0480593 -21.1875 54.3125 C-31.19843304 53.50516669 -39.11011138 50.76768766 -45.9375 43 C-51.55950563 35.06305087 -52.94408 27.58403403 -52.0625 18 C-50.1696975 9.59641299 -46.33651858 2.67317303 -39.18359375 -2.30859375 C-26.20469319 -9.46665406 -12.1088917 -7.90784764 0 0 Z " fill="#012F43" transform="translate(328.0625,70)"/>
<path d="M0 0 C2.625 2.3125 2.625 2.3125 4 4 C2.4404735 7.82792868 0.16368164 10.36359864 -3 13 C-6.03539004 13.10117967 -7.58058309 11.61681516 -10.125 9.9375 C-14.62902531 7.29887573 -18.9126537 7.21481472 -24 8 C-28.49127219 9.36616644 -31.11267526 11.62918224 -33.4375 15.6875 C-35.67774449 20.91473715 -35.97061658 25.75503926 -34.33984375 31.20703125 C-32.50082919 35.49806522 -30.29617901 38.32846177 -26.05859375 40.37890625 C-20.67512733 42.00313995 -15.68568627 41.66223389 -10.5 39.625 C-7.95615238 38.09448852 -7.95615238 38.09448852 -6 36 C-2.63567724 36.32138856 -1.01182596 37.64645863 1.25 40.0625 C2.03117187 40.88427734 2.03117187 40.88427734 2.828125 41.72265625 C3.21484375 42.14417969 3.6015625 42.56570312 4 43 C2.05630005 47.94759988 -1.48768161 50.14932091 -6 52.6875 C-13.96246896 55.85162522 -23.99175499 56.05076 -32 53 C-39.32191809 49.59317882 -45.50444186 43.81697076 -48.9375 36.4375 C-51.31309098 28.92469352 -51.39003063 19.39292088 -48.4375 12.0625 C-44.74846407 5.17803154 -39.46406363 -1.21555439 -32 -4 C-20.47801933 -7.29456635 -10.17797447 -6.49577591 0 0 Z " fill="#012F43" transform="translate(272,69)"/>
<path d="M0 0 C5.29642562 3.9593921 9.96156672 8.04813228 13 14 C13.25 17.25 13.25 17.25 13 20 C12 21 12 21 9.671875 21.35546875 C7 21 7 21 5.078125 18.98828125 C4.47484375 18.10527344 3.8715625 17.22226562 3.25 16.3125 C-1.7239815 9.7364121 -6.77470559 6.23506743 -15 5 C-22.46586301 4.59424658 -29.30930791 7.19452668 -35 12 C-40.59500196 18.78913907 -43.37262131 25.12629339 -42.9375 33.9375 C-41.90958629 41.62913015 -38.13463597 48.01645712 -32.0078125 52.77734375 C-25.91652844 56.48662762 -19.46743 57.68764196 -12.44140625 56.62109375 C-4.10895919 54.50131922 0.30712347 49.99491544 5.078125 43.01171875 C7 41 7 41 9.734375 40.70703125 C10.85585937 40.85205078 10.85585937 40.85205078 12 41 C13.3125 43 13.3125 43 14 46 C11.27644183 53.51381636 4.28525949 59.68153134 -2.5703125 63.390625 C-11.43044505 67.05866821 -20.62315826 67.38205369 -29.75 64.4375 C-39.39053216 60.410087 -45.57825459 54.45803849 -50 45 C-53.81831557 35.57410987 -52.7475914 25.08242166 -49.25390625 15.7578125 C-45.05381707 6.52023317 -38.14197847 0.83009242 -28.75 -2.875 C-19.12102984 -5.67645996 -8.7811105 -4.87695354 0 0 Z " fill="#006175" transform="translate(87,40)"/>
<path d="M0 0 C0.61875 0.33 1.2375 0.66 1.875 1 C1 5.75 1 5.75 -0.125 8 C-0.640625 7.835 -1.15625 7.67 -1.6875 7.5 C-4.85863876 6.84951 -7.89718334 6.9379266 -11.125 7 C-11.455 7.66 -11.785 8.32 -12.125 9 C-11.00351563 9.14695312 -11.00351563 9.14695312 -9.859375 9.296875 C-1.87993782 10.50841258 -1.87993782 10.50841258 1.5625 12.75 C3.35826039 15.82844638 3.51963723 17.49030841 2.875 21 C0.702365 23.57285724 -1.10493838 25.48996919 -4.125 27 C-10.09032949 27.41913263 -15.55656539 27.40797172 -21.125 25 C-20.25 20.25 -20.25 20.25 -19.125 18 C-18.465 18.165 -17.805 18.33 -17.125 18.5 C-13.39400206 19.12183299 -9.90626622 19.06408926 -6.125 19 C-9.70492391 17.09944543 -13.33018822 15.94639176 -17.19921875 14.78125 C-19.125 14 -19.125 14 -20.125 12 C-20.70703713 4.78273959 -20.70703713 4.78273959 -18.3125 1.5625 C-13.07207339 -2.18066187 -5.95184344 -1.9045899 0 0 Z " fill="#012F43" transform="translate(230.125,31)"/>
<path d="M0 0 C2.97 0 5.94 0 9 0 C9.8394882 2.10171867 10.67139656 4.20646625 11.5 6.3125 C11.9640625 7.48425781 12.428125 8.65601563 12.90625 9.86328125 C14 13 14 13 14 16 C14.66 16 15.32 16 16 16 C16.18175781 15.34773438 16.36351562 14.69546875 16.55078125 14.0234375 C17.97466596 9.07269989 19.49407234 4.53453577 22 0 C24.64 0 27.28 0 30 0 C29.37386216 3.64372886 28.3731497 6.84874779 26.96875 10.265625 C26.57042969 11.23757812 26.17210937 12.20953125 25.76171875 13.2109375 C25.13716797 14.71527344 25.13716797 14.71527344 24.5 16.25 C23.87544922 17.77753906 23.87544922 17.77753906 23.23828125 19.3359375 C20.13722364 26.86277636 20.13722364 26.86277636 19 28 C16.32941149 28.14115161 13.67567762 28.04247107 11 28 C7.8912729 22.15394241 5.16752372 16.1971782 2.6875 10.0625 C2.42114746 9.4120874 2.15479492 8.7616748 1.88037109 8.09155273 C0.74224188 5.23128383 0 3.10872799 0 0 Z " fill="#012F43" transform="translate(165,30)"/>
<path d="M0 0 C2.64 0 5.28 0 8 0 C8 1.98 8 3.96 8 6 C10.31 6 12.62 6 15 6 C15 8.31 15 10.62 15 13 C12.69 13 10.38 13 8 13 C8.33 16.63 8.66 20.26 9 24 C12.63619656 25.08084521 12.63619656 25.08084521 15 25 C15.33 27.31 15.66 29.62 16 32 C12.81092735 33.59453633 9.47055318 33.38561702 6 33 C1.43055556 30.86111111 1.43055556 30.86111111 0 28 C-0.0716735 25.44842345 -0.09308442 22.92527029 -0.0625 20.375 C-0.05798828 19.66859375 -0.05347656 18.9621875 -0.04882812 18.234375 C-0.03703875 16.48954725 -0.01910324 14.744763 0 13 C-1.32 13 -2.64 13 -4 13 C-4 10.69 -4 8.38 -4 6 C-2.68 6 -1.36 6 0 6 C0 4.02 0 2.04 0 0 Z " fill="#012F43" transform="translate(252,25)"/>
<path d="M0 0 C-2.02640136 7.87332249 -4.47032764 15.52733416 -7.1875 23.1875 C-7.55552734 24.23486328 -7.92355469 25.28222656 -8.30273438 26.36132812 C-9.19841262 28.90877663 -10.09753816 31.45494852 -11 34 C-13.61856272 30.86478286 -14.9354248 27.87847555 -16.26171875 24.02734375 C-16.85629883 22.30741211 -16.85629883 22.30741211 -17.46289062 20.55273438 C-17.86701172 19.35970703 -18.27113281 18.16667969 -18.6875 16.9375 C-19.31108398 15.1421582 -19.31108398 15.1421582 -19.94726562 13.31054688 C-23 4.40297876 -23 4.40297876 -23 1 C-20.41659649 2.14817934 -18.6932956 3.27524754 -16.5625 5.1875 C-14.19878513 7.20140158 -14.19878513 7.20140158 -11.625 7.125 C-8.34369369 5.71872587 -6.13395887 3.71160204 -3.55078125 1.27734375 C-2 0 -2 0 0 0 Z " fill="#D86000" transform="translate(81,56)"/>
<path d="M0 0 C2.64 0 5.28 0 8 0 C8 9.24 8 18.48 8 28 C5.36 28 2.72 28 0 28 C0 18.76 0 9.52 0 0 Z " fill="#012F43" transform="translate(237,30)"/>
<path d="M0 0 C2.64 0 5.28 0 8 0 C8 9.24 8 18.48 8 28 C5.36 28 2.72 28 0 28 C0 18.76 0 9.52 0 0 Z " fill="#012F43" transform="translate(197,30)"/>
<path d="M0 0 C0.928125 0.20625 1.85625 0.4125 2.8125 0.625 C4.14407895 6.07236842 4.14407895 6.07236842 2.6875 8.5 C0.21772151 9.9818671 -1.35363833 9.9883156 -4.1875 9.625 C-6.1875 7.625 -6.1875 7.625 -6.5 4.625 C-6.396875 3.635 -6.29375 2.645 -6.1875 1.625 C-3.1875 -0.375 -3.1875 -0.375 0 0 Z " fill="#012F43" transform="translate(242.1875,18.375)"/>
<path d="M0 0 C2.3125 0.75 2.3125 0.75 3.3125 1.75 C3.5 4.6875 3.5 4.6875 3.3125 7.75 C2.6525 8.41 1.9925 9.07 1.3125 9.75 C-2.3125 9.375 -2.3125 9.375 -5.6875 8.75 C-6.0175 6.77 -6.3475 4.79 -6.6875 2.75 C-4.28017516 0.52099552 -3.34709579 -0.31135775 0 0 Z " fill="#012F43" transform="translate(202.6875,18.25)"/>
</svg>
