<svg width="130" height="56" viewBox="0 0 130 56" fill="none" xmlns="http://www.w3.org/2000/svg">
<g clip-path="url(#clip0_479_540)">
<path d="M71.716 31.6626C72.357 31.0178 73.1192 30.5237 74.0005 30.1803C74.8819 29.8368 75.8606 29.664 76.9325 29.664C78.0044 29.664 79.0762 29.8745 80.0204 30.2933C80.9666 30.712 81.8371 31.3524 82.6362 32.2121L85.9146 29.1167C84.8427 27.8493 83.524 26.8811 81.9584 26.2141C80.3928 25.5472 78.6345 25.2148 76.6791 25.2148C74.9143 25.2148 73.2968 25.5007 71.8265 26.0701C70.3562 26.6395 69.0743 27.4527 67.9829 28.5052C66.8894 29.5599 66.0449 30.794 65.445 32.2143C64.8452 33.6323 64.5464 35.1922 64.5464 36.8895C64.5464 38.5867 64.8452 40.1466 65.445 41.5646C66.0449 42.9827 66.8829 44.219 67.9656 45.2737C69.0483 46.3284 70.3194 47.1394 71.7788 47.7088C73.2383 48.2782 74.8407 48.5641 76.5839 48.5641C78.1603 48.5641 79.741 48.3159 81.3261 47.8218C82.9112 47.3277 84.3035 46.6187 85.501 45.6925V36.5349H80.8367V43.1621C80.4989 43.3416 80.1568 43.4945 79.8125 43.6141C78.8554 43.9487 77.8744 44.1149 76.8654 44.1149C75.8563 44.1149 74.8537 43.9421 73.9811 43.5986C73.1084 43.2552 72.3527 42.7544 71.7117 42.0986C71.0708 41.4427 70.577 40.6739 70.2306 39.7943C69.8841 38.9124 69.7109 37.9463 69.7109 36.8917C69.7109 35.837 69.8841 34.8399 70.2306 33.9581C70.577 33.0762 71.0708 32.314 71.7117 31.6692L71.716 31.6626Z" fill="#012F43"/>
<path d="M94.7364 31.6626C95.3665 31.0178 96.1114 30.5237 96.9733 30.1803C97.8351 29.8368 98.7792 29.664 99.8099 29.664C100.901 29.664 101.91 29.8856 102.835 30.3243C103.76 30.7652 104.6 31.4255 105.356 32.3073L108.634 29.212C107.584 27.9003 106.287 26.9054 104.743 26.2296C103.199 25.5516 101.471 25.2148 99.5588 25.2148C97.8351 25.2148 96.25 25.5007 94.7992 26.0701C93.3505 26.6395 92.0838 27.4527 91.0011 28.5052C89.9184 29.5599 89.0782 30.794 88.4806 32.2143C87.8829 33.6346 87.5819 35.1922 87.5819 36.8895C87.5819 38.5867 87.8807 40.1466 88.4806 41.5646C89.0804 42.9827 89.914 44.219 90.9859 45.2737C92.0578 46.3284 93.3224 47.1394 94.784 47.7088C96.2435 48.2782 97.8243 48.5641 99.5263 48.5641C101.458 48.5641 103.197 48.2206 104.743 47.5315C106.287 46.8447 107.584 45.8432 108.634 44.5337L105.356 41.4383C104.6 42.3401 103.76 43.0137 102.835 43.4546C101.91 43.8955 100.901 44.1149 99.8099 44.1149C98.7814 44.1149 97.8351 43.9421 96.9733 43.5986C96.1114 43.2552 95.3665 42.7611 94.7364 42.1163C94.1063 41.4715 93.6169 40.7093 93.2704 39.8275C92.924 38.9456 92.7507 37.9685 92.7507 36.8939C92.7507 35.8193 92.924 34.8421 93.2704 33.9603C93.6169 33.0784 94.1063 32.3162 94.7364 31.6714V31.6626Z" fill="#012F43"/>
<path d="M124.201 43.448C123.276 43.8889 122.267 44.1083 121.176 44.1083C120.147 44.1083 119.201 43.9354 118.339 43.592C117.478 43.2486 116.733 42.7545 116.102 42.1097C115.472 41.4649 114.983 40.7027 114.637 39.8209C114.29 38.939 114.117 37.9619 114.117 36.8872C114.117 35.8126 114.29 34.8355 114.637 33.9536C114.983 33.0718 115.472 32.3096 116.102 31.6648C116.733 31.02 117.478 30.5259 118.339 30.1825C119.201 29.8391 120.145 29.6662 121.176 29.6662C122.267 29.6662 123.276 29.8878 124.201 30.3265C125.126 30.7674 125.966 31.4277 126.722 32.3096L130 29.2142C128.95 27.9025 127.653 26.9077 126.109 26.2319C124.565 25.5539 122.837 25.2171 120.925 25.2171C119.201 25.2171 117.616 25.5029 116.165 26.0723C114.717 26.6418 113.45 27.4549 112.367 28.5074C111.284 29.5621 110.444 30.7962 109.847 32.2165C109.247 33.6346 108.948 35.1944 108.948 36.8917C108.948 38.5889 109.247 40.1488 109.847 41.5668C110.446 42.9849 111.28 44.2213 112.352 45.2759C113.424 46.3306 114.688 47.1416 116.15 47.711C117.61 48.2805 119.19 48.5663 120.892 48.5663C122.824 48.5663 124.563 48.2228 126.109 47.5338C127.653 46.8469 128.95 45.8454 130 44.5359L126.722 41.4405C125.966 42.3423 125.126 43.0159 124.201 43.4568V43.448Z" fill="#012F43"/>
<path d="M70.9364 19.2302L68.1517 12.2108H65.1375L69.3687 22.5205H72.3851L76.6357 12.2108H73.8272L70.9364 19.2302Z" fill="#012F43"/>
<path d="M80.7544 12.2108H77.8333V22.5205H80.7544V12.2108Z" fill="#012F43"/>
<path d="M80.605 7.89016C80.2672 7.59104 79.8298 7.44037 79.295 7.44037C78.7601 7.44037 78.3205 7.5999 77.9849 7.91896C77.6471 8.23803 77.4803 8.63464 77.4803 9.10659C77.4803 9.57853 77.6493 9.97515 77.9849 10.2942C78.3227 10.6133 78.7579 10.7728 79.295 10.7728C79.832 10.7728 80.2845 10.6111 80.6159 10.2853C80.9472 9.95964 81.1117 9.54751 81.1117 9.04898C81.1117 8.57703 80.9428 8.18928 80.6072 7.89016H80.605Z" fill="#012F43"/>
<path d="M90.41 17.1075C90.0548 16.897 89.6586 16.7331 89.2212 16.6179C88.7837 16.5026 88.3507 16.4162 87.9198 16.3586C87.4888 16.301 87.0926 16.2345 86.7309 16.157C86.3693 16.0794 86.0792 15.9775 85.8605 15.8512C85.6418 15.7227 85.5335 15.5322 85.5335 15.2774C85.5335 14.996 85.6829 14.7655 85.9839 14.5883C86.2827 14.4088 86.7569 14.3202 87.4066 14.3202C87.8678 14.3202 88.3463 14.3756 88.84 14.4841C89.3338 14.5927 89.8231 14.7943 90.3104 15.0868L91.2848 12.9597C90.8106 12.665 90.2172 12.4435 89.5048 12.2884C88.7924 12.1355 88.093 12.0579 87.4066 12.0579C86.4321 12.0579 85.5963 12.2019 84.8968 12.49C84.1974 12.778 83.6647 13.1702 83.2945 13.6687C82.9263 14.1673 82.7423 14.7412 82.7423 15.3926C82.7423 15.9797 82.8505 16.4583 83.0692 16.8306C83.288 17.2006 83.5781 17.4953 83.9397 17.7124C84.3014 17.9296 84.702 18.0935 85.1372 18.1999C85.5746 18.3085 86.0077 18.3949 86.4386 18.4591C86.8695 18.5234 87.2658 18.5876 87.6274 18.6497C87.989 18.7139 88.2792 18.807 88.4979 18.9266C88.7166 19.0485 88.8249 19.2302 88.8249 19.4717C88.8249 19.7664 88.6841 19.9946 88.4026 20.1608C88.1211 20.327 87.6447 20.4112 86.9691 20.4112C86.3563 20.4112 85.737 20.3181 85.1047 20.1342C84.4746 19.9481 83.9268 19.7088 83.4655 19.4163L82.4911 21.5633C82.9523 21.8824 83.5803 22.1483 84.3728 22.3588C85.1654 22.5693 85.9925 22.6756 86.8544 22.6756C87.8656 22.6756 88.7231 22.5338 89.429 22.2546C90.135 21.9733 90.6741 21.5877 91.0488 21.0958C91.4234 20.6039 91.6096 20.0389 91.6096 19.4008C91.6096 18.8136 91.497 18.3373 91.2718 17.9739C91.0466 17.6105 90.7564 17.3225 90.4013 17.112L90.41 17.1075Z" fill="#012F43"/>
<path d="M96.1872 7.89016C95.8494 7.59104 95.412 7.44037 94.8771 7.44037C94.3423 7.44037 93.9027 7.5999 93.567 7.91896C93.2292 8.23803 93.0625 8.63464 93.0625 9.10659C93.0625 9.57853 93.2314 9.97515 93.567 10.2942C93.9048 10.6133 94.3401 10.7728 94.8771 10.7728C95.4141 10.7728 95.8667 10.6111 96.198 10.2853C96.5293 9.95964 96.6939 9.54751 96.6939 9.04898C96.6939 8.57703 96.525 8.18928 96.1893 7.89016H96.1872Z" fill="#012F43"/>
<path d="M96.3367 12.2108H93.4155V22.5205H96.3367V12.2108Z" fill="#012F43"/>
<path d="M104.764 19.9149C104.44 20.1697 104.045 20.2982 103.584 20.2982C103.197 20.2982 102.891 20.1807 102.666 19.9437C102.441 19.7066 102.328 19.372 102.328 18.9377V14.7412H104.838V12.4413H102.328V9.93085H99.4072V12.4413H97.8524V14.7412H99.4072V18.9754C99.4072 20.2007 99.7385 21.1246 100.399 21.745C101.062 22.3654 101.984 22.6756 103.171 22.6756C103.619 22.6756 104.054 22.6203 104.472 22.5117C104.89 22.4031 105.249 22.2414 105.548 22.022L104.762 19.9149H104.764Z" fill="#012F43"/>
<path d="M27.3404 35.139L31.576 22.392L27.1629 25.8308L23.0334 22.6823L27.3404 35.139Z" fill="#D86000"/>
<path d="M30.0276 7.46699C24.8328 6.7624 19.6424 8.1162 15.4133 11.2825C11.1995 14.4376 8.36928 19.0663 7.44465 24.3131C6.40526 30.218 7.74131 36.0209 11.2081 40.654C14.6749 45.287 19.8004 48.1209 25.6449 48.635C26.2295 48.686 26.812 48.7125 27.3945 48.7125C31.9743 48.7125 36.4004 47.1283 40.0188 44.1637C42.5675 42.0743 44.5488 39.4353 45.8481 36.4552C46.1924 35.6664 45.8048 34.7425 45.0079 34.4588C44.3042 34.2085 43.5268 34.5453 43.2236 35.2432C40.2917 41.9945 33.4425 46.3617 25.8939 45.6992C20.868 45.256 16.4679 42.8298 13.4991 38.8637C10.5325 34.8976 9.38919 29.9166 10.2835 24.8382C11.9292 15.4857 20.4371 9.14207 29.6487 10.3917C35.6988 11.2138 40.7637 15.2131 43.189 20.6948C43.4943 21.3861 44.2673 21.7207 44.9668 21.4747H44.9689C45.7723 21.1911 46.1621 20.2605 45.8091 19.4695C42.9789 13.0838 37.0739 8.42861 30.0255 7.47142L30.0276 7.46699Z" fill="#009597"/>
<path d="M29.1204 14.4642C22.0373 13.5026 15.4978 18.3816 14.2332 25.5716C13.5489 29.4624 14.4303 33.2867 16.7169 36.3422C19.0036 39.3976 22.3816 41.2677 26.2317 41.6045C26.6215 41.6399 27.0091 41.6554 27.3924 41.6554C32.5027 41.6554 37.0501 38.6753 39.2718 34.173C39.6637 33.3797 39.2739 32.4159 38.4554 32.1234H38.4532C37.7733 31.8797 37.0219 32.1877 36.6971 32.8435C34.824 36.6368 30.8462 39.0475 26.4786 38.6664C23.447 38.4006 20.7922 36.9382 19.0058 34.5496C17.2193 32.1611 16.5307 29.1588 17.0699 26.0945C18.0616 20.4577 23.1871 16.6334 28.7414 17.3889C32.1887 17.8564 35.1034 20.0367 36.6473 23.0634C36.9808 23.717 37.7213 24.0339 38.4034 23.7946C39.2328 23.5021 39.6182 22.5205 39.2133 21.7251C37.2471 17.852 33.5226 15.0646 29.1204 14.4664V14.4642Z" fill="#006175"/>
<path d="M37.9881 28.0975C38.0379 28.8819 38.707 29.4734 39.4758 29.4734H51.8056C51.4678 35.4138 49.101 40.993 45.0517 45.3202C40.6841 49.9888 34.8115 52.7252 28.5166 53.0221C21.412 53.3566 14.8226 50.7997 9.95264 45.8166C5.08265 40.8334 2.58377 34.0888 2.91075 26.8212C3.20091 20.3802 5.87519 14.3733 10.4377 9.90203C15.0154 5.41742 21.0265 2.94912 27.3647 2.94912C32.763 2.94912 37.8799 4.71061 42.1652 8.04305C45.5952 10.7108 48.2998 14.3047 49.9585 18.3439C50.2508 19.0574 51.0282 19.4207 51.7449 19.1748C52.544 18.9001 52.9381 17.9894 52.6111 17.1962C50.7575 12.685 47.7368 8.67231 43.9083 5.69439C39.1206 1.96977 33.3996 0 27.3668 0C20.2816 0 13.5624 2.76078 8.44552 7.77273C3.34599 12.7692 0.357737 19.485 0.0329261 26.6861C-0.333027 34.7912 2.46684 42.3268 7.915 47.9016C13.047 53.1528 19.8788 56 27.2737 56C27.7306 56 28.1875 55.9889 28.6487 55.9668C35.6863 55.6344 42.2496 52.5767 47.1326 47.3587C52.0308 42.123 54.7289 35.2476 54.7289 27.9978V26.5243H39.426C38.5988 26.5243 37.934 27.2378 37.9881 28.0975Z" fill="#7FD2BA"/>
</g>
<defs>
<clipPath id="clip0_479_540">
<rect width="130" height="56" fill="white"/>
</clipPath>
</defs>
</svg>
